<svg xmlns="http://www.w3.org/2000/svg" xmlns:xlink="http://www.w3.org/1999/xlink" width="201.87" height="61.43" viewBox="0 0 201.87 61.43">
  <defs>
    <clipPath id="clip-tangoe">
      <rect width="201.87" height="61.43"/>
    </clipPath>
  </defs>
  <g id="tangoe" clip-path="url(#clip-tangoe)">
    <g id="Group_144" data-name="Group 144" transform="translate(-1004.787 -184.38)">
      <path id="Path_158" data-name="Path 158" d="M1025.111,229.4a13.338,13.338,0,0,1-3.735.393c-6.914,0-10.064-4.032-10.064-10.615,0,0,0-16.945,0-17.078s-.175-.118-.175-.118h-3.014s-3.335.265-3.335-3.493a3.118,3.118,0,0,1,3.36-3.287h2.925a.221.221,0,0,0,.238-.213v-7.237s-.249-3.377,3.845-3.377,3.848,3.407,3.848,3.407,0,7.031,0,7.222c0,.215.317.2.317.2h5.291a3.159,3.159,0,0,1,3.283,3.348,3.2,3.2,0,0,1-3.3,3.432h-5.456s-.139-.012-.139.118,0,16.354,0,16.354c0,2.631,1.456,3.876,4.086,3.876a16.466,16.466,0,0,0,2.234-.089s2.945-.506,3.081,2.97A4.028,4.028,0,0,1,1025.111,229.4Z" fill="#65b360"/>
      <path id="Path_159" data-name="Path 159" d="M1078.091,229.7a2.631,2.631,0,0,1,2.012,2.83c.135,3.476-2.7,3.658-2.933,3.689l-.792.056a5.428,5.428,0,0,1-5.73-4.506.142.142,0,0,0-.264-.036c-1.733,2.77-5.531,4.869-10.2,4.869-8.165,0-12.011-5.215-12.011-10.812-.005-6.464,4.7-10.185,11.222-10.644,0,0,8.626-.636,9.395-.675a.649.649,0,0,0,.684-.727V212.23c-.029-3.153-1.092-5.312-5.767-5.312-2.36,0-3.608.146-5.26,2.429a5.259,5.259,0,0,1-4.2,2.442,5.723,5.723,0,0,1-2.089-.339,2.812,2.812,0,0,1-1.831-3.62c.013-.038.027-.079.041-.121s.037-.1.058-.139c2.091-4.776,7.217-6.906,13.252-6.906,5.859,0,10.473,1.875,12.439,6.884a19.024,19.024,0,0,1,1.036,6.919l-.011,12.583a4.1,4.1,0,0,0,.248,2.08A1.487,1.487,0,0,0,1078.091,229.7Zm-10.1-9.047-7.213.547c-2.547.21-4.907,1.739-4.936,4.415-.047,2.744,2.3,4.341,4.871,4.341,3.2,0,5.85-1.091,7.368-3.17a7.779,7.779,0,0,0,1.385-4.807A1.176,1.176,0,0,0,1067.992,220.653Z" transform="translate(-17.082 -6.412)" fill="#65b360"/>
      <path id="Path_160" data-name="Path 160" d="M1126.088,231.295V214.754c0-4.026-1.351-6.378-5.752-6.378-2.935,0-4.854,1.761-5.986,4.267-1.2,2.705-1.135,6.268-1.135,9.171v7.227l-.014,3.881s.211,3.345-3.937,3.345-3.988-3.345-3.988-3.345V204.381s-.144-2.8,3.53-2.8c3.5.015,3.456,2.8,3.456,2.8l.151,1.056s.06.545.333.041c2.143-3.327,6.088-4.664,9.923-4.664,7.406,0,11.321,4.967,11.321,12.092V232.86s.324,3.408-3.823,3.408-4.079-3.408-4.079-3.408Z" transform="translate(-39.563 -6.47)" fill="#65b360"/>
      <path id="Path_161" data-name="Path 161" d="M1302.8,230.406a9.784,9.784,0,0,1-.806,1.095c-2.956,3.424-7.4,4.9-11.832,4.9a15.207,15.207,0,0,1-10.93-4.251c-3.49-3.289-5.435-8.1-5.435-13.692,0-5.465,1.741-10.337,5.1-13.7a15.093,15.093,0,0,1,11.063-4.345c5.172,0,9.873,2.041,12.761,6.32,2.554,3.751,3.16,7.637,3.026,11.916,0,0,.012,2.222-1.807,2.343h-21.368s-.274-.026-.274.191a8.908,8.908,0,0,0,2.53,6.5,7.323,7.323,0,0,0,5.2,2.129c2.585,0,3.986-.554,5.2-1.736a18.758,18.758,0,0,0,1.481-1.859c.275-.376,1.561-1.732,4.257-.756A3.361,3.361,0,0,1,1302.8,230.406Zm-7.6-21.43a7.109,7.109,0,0,0-5.309-1.975,7.226,7.226,0,0,0-5.844,2.634,8.062,8.062,0,0,0-1.788,4.826c-.07.561.408.509.408.509h14.106s.626.084.552-.543A8.543,8.543,0,0,0,1295.2,208.976Z" transform="translate(-105.913 -6.315)" fill="#65b360"/>
      <g id="Group_141" data-name="Group 141" transform="translate(1129.671 191.538)">
        <path id="Path_162" data-name="Path 162" d="M1240.868,207.88a3.3,3.3,0,1,0-4.545,4.752v0a12.033,12.033,0,0,1,3.058,8.258c0,6.4-4.316,11.6-10.821,11.6s-10.871-5.2-10.871-11.6a11.969,11.969,0,0,1,3.171-8.342,3.288,3.288,0,0,0-4.19-5.062l-.011-.014c-.063.057-.121.118-.183.175s-.149.132-.218.206a17.961,17.961,0,0,0-5.486,13.037,17.765,17.765,0,1,0,35.527,0A17.993,17.993,0,0,0,1240.868,207.88Z" transform="translate(-1210.77 -200.353)" fill="#65b360"/>
        <path id="Path_163" data-name="Path 163" d="M1237.563,216.209a3.864,3.864,0,0,1-3.86-3.859v-12.3a3.833,3.833,0,1,1,7.667,0v12.3A3.838,3.838,0,0,1,1237.563,216.209Z" transform="translate(-1219.799 -196.187)" fill="#65b360"/>
      </g>
      <path id="Path_164" data-name="Path 164" d="M1173.248,234.469c5.617,0,8.992,1.021,8.992,4.712.056,2.55-2.21,4.982-8.379,5.419-6.6.312-10.221-1.061-10.221-4.223C1163.64,236.071,1167.632,234.469,1173.248,234.469Zm13.67-30.676s2.82-.708,2.71-3.213c0-2.857-2.576-3.19-3.417-3.228a3.44,3.44,0,0,0-1.039.092,7.225,7.225,0,0,0-4.64,3.635c-.069.126-.254.435-.575.173a15.32,15.32,0,0,0-7.393-1.893c-7.745,0-14.02,4.362-14.02,12.572a11.536,11.536,0,0,0,3.161,8.156c.085.091.224.29-.03.456a7.715,7.715,0,0,0-3.781,6.973,6.851,6.851,0,0,0,3.29,5.523c.041.029.1.087.014.153a9.2,9.2,0,0,0-4.083,8.589c.068.754.774,9.288,16.008,8.768,16.8,0,16.88-10.362,16.88-11.265a9.446,9.446,0,0,0-3.916-8.367c-3.208-2.346-7.611-2.467-11.051-2.467h-5.961c-1.719,0-3.75-.447-3.75-2.5a2.964,2.964,0,0,1,1.6-2.369.262.262,0,0,1,.238-.026,16.991,16.991,0,0,0,5.4.882c7.416,0,13.946-4.645,13.955-12.441a11.638,11.638,0,0,0-1.7-6.066.308.308,0,0,1-.014-.289,3.433,3.433,0,0,1,2.115-1.848Zm-14.354,1.753c3.775,0,6.057,2.678,6.057,6.384s-2.281,6.319-6.057,6.319-6-2.655-6.06-6.174C1166.512,208.277,1168.792,205.547,1172.563,205.547Z" transform="translate(-59.958 -5.105)" fill="#65b360"/>
      <g id="Group_143" data-name="Group 143" transform="translate(1199.793 194.162)">
        <path id="Path_165" data-name="Path 165" d="M1326.428,204.127a3.758,3.758,0,0,1,.452-1.814,3.387,3.387,0,0,1,1.253-1.318,3.343,3.343,0,0,1,3.456,0,3.386,3.386,0,0,1,1.251,1.318,3.87,3.87,0,0,1,.017,3.6,3.441,3.441,0,0,1-1.236,1.338,3.318,3.318,0,0,1-3.511,0,3.446,3.446,0,0,1-1.241-1.333A3.778,3.778,0,0,1,1326.428,204.127Zm.556,0a3.163,3.163,0,0,0,.387,1.54,2.878,2.878,0,0,0,1.052,1.109,2.774,2.774,0,0,0,2.885-.007,2.89,2.89,0,0,0,1.047-1.109,3.264,3.264,0,0,0,0-3.057,2.857,2.857,0,0,0-1.047-1.1,2.8,2.8,0,0,0-2.888,0,2.844,2.844,0,0,0-1.052,1.1A3.142,3.142,0,0,0,1326.985,204.125Zm2.167.366v1.635h-.682v-4.107h1.335a1.841,1.841,0,0,1,1.149.316,1.1,1.1,0,0,1,.408.922.984.984,0,0,1-.618.909.965.965,0,0,1,.594.987v.295a1.591,1.591,0,0,0,.083.6v.078h-.7a1.929,1.929,0,0,1-.068-.622,4.993,4.993,0,0,0-.015-.529c-.052-.31-.262-.471-.634-.484Zm0-.62h.754a.96.96,0,0,0,.562-.169.5.5,0,0,0,.212-.419.6.6,0,0,0-.188-.5,1.14,1.14,0,0,0-.673-.147h-.667Z" transform="translate(-1326.428 -200.514)" fill="#65b360"/>
      </g>
    </g>
  </g>
</svg>
